<?xml version="1.0" encoding="UTF-8" standalone="no"?>
<!-- Created with Inkscape (http://www.inkscape.org/) -->

<svg width="1024" height="1024" viewBox="0 0 135.46666 135.46667" version="1.1" id="svg5" inkscape:version="1.2 (dc2aeda, 2022-05-15)" sodipodi:docname="AppIcon.svg"
   xmlns:inkscape="http://www.inkscape.org/namespaces/inkscape"
   xmlns:sodipodi="http://sodipodi.sourceforge.net/DTD/sodipodi-0.dtd"
   xmlns:xlink="http://www.w3.org/1999/xlink"
   xmlns="http://www.w3.org/2000/svg"
   xmlns:svg="http://www.w3.org/2000/svg">
   <sodipodi:namedview id="namedview7" pagecolor="#ffffff" bordercolor="#000000" borderopacity="0.25" inkscape:showpageshadow="2" inkscape:pageopacity="0.0" inkscape:pagecheckerboard="0" inkscape:deskcolor="#d1d1d1" inkscape:document-units="px" showgrid="false" inkscape:zoom="0.96387312" inkscape:cx="177.92798" inkscape:cy="203.86501" inkscape:window-width="1680" inkscape:window-height="997" inkscape:window-x="0" inkscape:window-y="25" inkscape:window-maximized="0" inkscape:current-layer="layer1" />
   <style type="text/css">
   
.shadow {
   fill:#000000;
   fill-opacity:0.4;
   stroke:none;
   stroke-width:1.04484;
   stroke-dasharray:none;
   stroke-opacity:1;
   filter:url(#filter8175);
}

.fill {
   fill:#ffffff;
   stroke-width:1.04496;
   fill-opacity:1;
}

   </style>
   <defs id="defs2">
      <linearGradient inkscape:collect="always" id="linearGradient828">
         <stop style="stop-color:#4B3577;stop-opacity:1;" offset="0" id="stop824" />
         <stop style="stop-color:#885691;stop-opacity:1;" offset="1" id="stop826" />
      </linearGradient>
      <linearGradient inkscape:collect="always" xlink:href="#linearGradient828" id="linearGradient830" x1="0.54900032" y1="68.00783" x2="136.01566" y2="68.00783" gradientUnits="userSpaceOnUse" gradientTransform="translate(-0.54900032,-135.74116)" />
      <filter inkscape:collect="always" style="color-interpolation-filters:sRGB" id="filter8175" x="-0.13120387" y="-0.068146817" width="1.2624077" height="1.1362936">
         <feGaussianBlur inkscape:collect="always" stdDeviation="2.8284067" id="feGaussianBlur8177" />
      </filter>
   </defs>
   <g inkscape:label="Layer 1" inkscape:groupmode="layer" id="layer1">
      <rect style="fill:url(#linearGradient830);fill-opacity:1;stroke-width:0.264583" id="rect61" width="135.46666" height="135.46666" x="0" y="-135.46666" transform="rotate(90)" />
      <g class="scale shadow" transform="translate(21, 21) scale(0.14, 0.14)">
         <path d="M166.7,311.9c1.8,0.6,3.6,0.9,5.3,0.9c6.4,0,12.5-4,14.8-10.4c9.2-25.7,21.9-46.2,35.9-62.7
				c4.2,10.3,14.3,17.5,26.1,17.5c15.6,0,28.3-12.7,28.3-28.3c0-10.6-5.9-19.8-14.5-24.7c11.1-7.4,22-13.1,32-17.4
				c5.9-2.6,9.5-8.4,9.5-14.4c0-2.1-0.4-4.2-1.3-6.2l-2.5,1.1l2.5-1.1c-2.6-5.9-8.4-9.5-14.4-9.5c-2.1,0-4.2,0.4-6.2,1.3
				c-20.7,9-44.9,22.9-67.4,44.3c-22.5,21.5-43.4,50.4-57.5,89.4c-0.6,1.8-0.9,3.6-0.9,5.3C156.3,303.5,160.3,309.5,166.7,311.9z"/>
         <path d="M213.6,356c15-21.4,35.5-36.7,56.7-52.6c14.8-11.1,30-22.4,43.5-36.2c13.5-13.8,25.2-30,33-50.8
				c0.7-1.8,1-3.7,1-5.5c0-6.4-3.9-12.4-10.2-14.7c-1.8-0.7-3.7-1-5.5-1c-6.4,0-12.4,3.9-14.7,10.2c-6.1,16.3-15.6,29.3-27,40.8
				c-11.4,11.5-24.9,21.6-38.8,32c-21.8,16.3-45.4,33.9-63.6,59.6c-18.2,25.7-30.8,59.6-30.8,108l0,0.1c0,21.4,5.2,37.9,10.6,49.2
				c5.3,11.3,10.8,17.4,11.4,18c3.1,3.4,7.3,5.1,11.6,5.1c3.8,0,7.6-1.4,10.7-4.2c3.4-3.1,5.1-7.3,5.1-11.6c0-3.8-1.4-7.6-4.1-10.6
				l0,0c-0.1-0.1-3.6-4.2-6.9-11.8c-3.4-7.7-6.7-19.1-6.7-34.1v-0.1C188.7,404.9,198.6,377.4,213.6,356z"/>
         <path d="M475.5,445.9c0,8.6,6.9,15.6,15.5,15.7h0l0.2,0l0,0h0c8.6,0,15.6-6.9,15.7-15.5c0-1.6,0-3.1,0-4.7
				c0-53.6-12.8-89.2-31.5-114.9c-18.6-25.7-42.9-41.5-65.3-56c-15.9-10.3-30.7-20-42.6-32.3c-3.1-3.2-7.2-4.8-11.3-4.8
				c-3.9,0-7.9,1.5-10.9,4.4c-3.2,3.1-4.8,7.2-4.8,11.3c0,3.9,1.5,7.9,4.4,10.9c14.5,15,31.6,26.1,48,36.8
				c21.5,14,42.1,27.5,57.3,48.6c15.2,21.1,25.2,50.1,25.2,95.9c0,1.4,0,2.9,0,4.3L475.5,445.9z"/>
         <path d="M508.5,291.7c-24.3-67.4-69.5-104.2-103.2-123c-36.5-20.4-67.2-24.9-68.7-25.1c-0.7-0.1-1.5-0.2-2.2-0.2
				c-7.7,0-14.4,5.7-15.5,13.5l2.7,0.4L319,157c-0.1,0.7-0.2,1.5-0.2,2.2c0,7.7,5.7,14.4,13.5,15.6l0,0c0,0,27.1,4,58.5,21.9
				c4.2,2.4,8.2,4.9,12.2,7.6c-8.6,4.8-14.5,14-14.5,24.6c0,15.6,12.7,28.3,28.3,28.3c11.8,0,21.9-7.2,26.1-17.5
				c15.2,17.9,27.3,38.8,35.9,62.7c2.3,6.4,8.3,10.4,14.8,10.4c1.8,0,3.6-0.3,5.3-0.9c6.4-2.3,10.4-8.3,10.4-14.8
				C509.5,295.3,509.2,293.5,508.5,291.7z"/>
         <path d="M285.9,585.9c-25-17.3-45.5-36.4-61.1-56.6c-3.1-4-7.8-6.1-12.4-6.1c-3.4,0-6.8,1.1-9.6,3.3
				c-4,3.1-6.1,7.8-6.1,12.4c0,3.4,1.1,6.8,3.3,9.6c17.6,22.8,40.5,44,68.1,63.2c2.7,1.9,5.9,2.8,9,2.8c5,0,9.9-2.4,12.9-6.7
				c1.9-2.7,2.8-5.9,2.8-9C292.7,593.8,290.3,588.9,285.9,585.9z"/>
         <path d="M396.2,611.7c84.2-58.5,98.3-118.2,99-121.2l-2.7-0.6l2.7,0.6c0.2-1.1,0.4-2.3,0.4-3.4
				c0-7.2-5-13.7-12.4-15.3l0,0c-1.1-0.2-2.3-0.4-3.4-0.4c-7.2,0-13.7,5-15.4,12.3l0,0c-0.2,0.7-12.1,50.6-86.2,102.2
				c-4.4,3.1-6.8,8-6.7,12.9c0,3.1,0.9,6.2,2.8,9c3.1,4.4,8,6.8,12.9,6.7C390.3,614.5,393.4,613.6,396.2,611.7z"/>
         <path d="M397.7,495.8v-36.3c21.3-5.3,40.1-20.4,48.8-41.9c0.8-1.9,1.2-3.9,1.2-5.9c0-6.2-3.7-12.1-9.8-14.6
				c-1.9-0.8-3.9-1.2-5.9-1.2c-6.2,0-12.1,3.7-14.6,9.8c-5.7,14.1-20.2,23.7-34.8,24.3l-0.4,0l-0.1,0H382c-0.4,0-0.9,0-1.3,0.1
				c-3.5,0-7.1-0.5-10.4-1.6c-3.6-1.2-7.5-3.7-10.9-7.2c-3.4-3.5-6.4-8-8.5-12.9c-1.3-3-2.1-6-2.6-9c12.6-2.8,23.5-10.1,31.4-19.2
				c8.4-9.8,13.6-21.6,13.6-32.7c0-6.5-1.8-12.3-5.1-17.2c-4.9-7.3-12.9-12.6-22.6-16c-9.7-3.4-21.3-5.1-33.6-5.1
				c-16.5,0-31.5,2.9-42.7,9.2c-5.6,3.1-10.2,7.1-13.5,12c-3.3,4.9-5.1,10.7-5.1,17.2c0,11.1,5.2,23,13.6,32.7
				c7.9,9.1,18.8,16.4,31.4,19.2c-0.5,3-1.3,6-2.6,9c-2.1,4.9-5.1,9.4-8.5,12.9c-3.4,3.5-7.3,6.1-10.9,7.2
				c-3.4,1.1-6.9,1.6-10.4,1.6c-0.4,0-0.9-0.1-1.3-0.1h-0.1l-0.5,0c-14.6-0.7-29.2-10.2-34.8-24.3c-2.5-6.1-8.4-9.8-14.6-9.8
				c-2,0-4,0.4-5.9,1.2c-6.1,2.5-9.8,8.4-9.8,14.6c0,2,0.4,4,1.2,5.9c8.7,21.4,27.5,36.5,48.8,41.9v36.3c0,36.2,29.4,65.7,65.7,65.7
				C368.3,561.4,397.7,532,397.7,495.8z M297.8,460c1.9-0.4,3.8-0.9,5.7-1.5c10.9-3.5,20.8-10.9,28.5-20.7
				c7.7,9.8,17.6,17.1,28.5,20.7c1.9,0.6,3.8,1.1,5.7,1.5v35.8c0,9.4-3.8,18-10,24.2c-6.2,6.2-14.7,10-24.2,10
				c-9.4,0-18-3.8-24.2-10c-6.2-6.2-10-14.7-10-24.2V460z"/>
         <path d="M31.7,322.8C55.6,235.2,102,177,136.7,143.5c37.6-36.2,70.1-52,70.8-52.4c8-3.8,11.5-13.4,7.7-21.5
				c-3.8-8.1-13.4-11.5-21.5-7.7c-1.5,0.7-36.8,17.6-78.3,57.3C77.3,155.6,26.5,219,0.6,314.3c-2.3,8.6,2.7,17.5,11.3,19.8
				c1.4,0.4,2.8,0.6,4.3,0.6C23.3,334.7,29.8,330,31.7,322.8z"/>
         <path d="M111.1,265.4c4.9-7.4,2.8-17.4-4.6-22.3c-7.4-4.9-17.5-2.8-22.4,4.6c-2.6,4-63.9,98.9-55.5,243.5
				c0.5,8.6,7.6,15.2,16.1,15.2c0.3,0,0.6,0,0.9,0c8.9-0.5,15.7-8.2,15.2-17.1C53.1,356,110.4,266.5,111.1,265.4z"/>
         <path d="M133.9,390c3.1-8.3-1.1-17.7-9.4-20.8c-8.3-3.1-17.7,1.1-20.8,9.4c-2.3,6-54.9,148.9,3.2,245.5
				c2.8,4.7,7.6,7.4,12.7,7.8c3.2,0.2,6.5-0.5,9.5-2.3c7.6-4.6,10.1-14.5,5.5-22.2C84.5,524.4,133.4,391.4,133.9,390z"/>
         <path d="M18.8,174.1c2.7,1.7,5.7,2.5,8.7,2.5c5.3,0,10.5-2.6,13.6-7.5C78,111.5,126.6,69.6,181.7,47.9
				c49.7-19.5,101-20.8,144.5-3.7l0.5,0.2c0.3,0.1,0.5,0.2,0.8,0.3c0.3,0.1,0.5,0.1,0.8,0.2c0.3,0.1,0.5,0.1,0.8,0.2
				c0.3,0.1,0.5,0.1,0.8,0.1c0.3,0,0.5,0.1,0.8,0.1c0.3,0,0.5,0,0.8,0.1c0.3,0,0.5,0,0.8,0c0.3,0,0.5,0,0.8,0c0.3,0,0.5,0,0.8-0.1
				c0.3,0,0.5-0.1,0.8-0.1c0.3,0,0.5-0.1,0.8-0.1c0.3-0.1,0.5-0.1,0.8-0.2c0.3-0.1,0.5-0.1,0.8-0.2c0.3-0.1,0.5-0.2,0.8-0.3l0.5-0.2
				c43.5-17.1,94.8-15.8,144.5,3.7c55.1,21.7,103.7,63.6,140.6,121.3c3.1,4.8,8.3,7.5,13.6,7.5c3,0,6-0.8,8.7-2.5
				c7.5-4.8,9.7-14.8,4.9-22.3C609.7,88.4,555.8,42,494.3,17.9C439.2-3.8,381.8-5.8,332.1,12C282.3-5.8,225-3.8,169.9,17.9
				C108.4,42,54.5,88.4,13.9,151.8C9.1,159.3,11.3,169.3,18.8,174.1z"/>
         <path d="M307.2,105.7c8.7-2,14.2-10.6,12.2-19.3c-2-8.7-10.6-14.2-19.3-12.2C185.5,100,128.8,190.2,126.5,194
				c-4.7,7.6-2.3,17.5,5.3,22.2c2.6,1.6,5.6,2.4,8.5,2.4c5.4,0,10.7-2.7,13.8-7.6C154.5,210.2,206.3,128.4,307.2,105.7z"/>
         <path d="M663.6,314.3c-26-95.4-76.7-158.7-114.8-195.1C507.4,79.6,472,62.7,470.5,62c-8.1-3.8-17.7-0.4-21.5,7.7
				c-3.8,8-0.4,17.7,7.6,21.5c0.3,0.2,33,16,70.8,52.4c34.7,33.4,81.1,91.7,104.9,179.3c2,7.2,8.5,11.9,15.6,11.9
				c1.4,0,2.8-0.2,4.3-0.6C660.8,331.8,665.9,322.9,663.6,314.3z"/>
         <path d="M557.7,243c-7.4,4.9-9.5,14.9-4.7,22.3c0.6,0.9,58,90.4,50.3,223.9c-0.5,8.9,6.3,16.5,15.2,17.1
				c0.3,0,0.6,0,0.9,0c8.5,0,15.6-6.6,16.1-15.2c8.4-144.6-52.9-239.5-55.5-243.5C575.1,240.2,565.1,238.1,557.7,243z"/>
         <path d="M535.7,369.7c-8.2,3.4-12.2,12.8-8.8,21.1c0.5,1.3,53.8,132.6,6.6,217.4c-4.3,7.8-1.5,17.6,6.2,22
				c3,1.7,6.4,2.3,9.6,2c5-0.5,9.7-3.4,12.4-8.2c54.9-98.5-2.5-239.5-4.9-245.4C553.4,370.2,543.9,366.3,535.7,369.7z"/>
         <path d="M523.9,218.6c2.9,0,5.8-0.8,8.5-2.4c7.6-4.7,10-14.6,5.3-22.2c-2.4-3.8-59-94-173.7-119.8
				c-8.7-2-17.3,3.5-19.3,12.2c-2,8.7,3.5,17.3,12.2,19.3c100.7,22.6,152.5,104,153.3,105.2C513.2,215.9,518.5,218.6,523.9,218.6z" />
         <path d="M276.9,675.9C190.8,616,175.7,556.4,175.4,555.2c-2-8.7-10.5-14.1-19.2-12.2c-8.7,1.9-14.2,10.5-12.3,19.2
				c0.6,2.9,16.8,72.2,114.6,140.2c2.8,2,6,2.9,9.2,2.9c5.1,0,10.1-2.4,13.3-6.9C286.1,691.1,284.3,681,276.9,675.9z"/>
         <path d="M507.9,543c-8.7-1.9-17.3,3.5-19.2,12.3c-0.1,0.6-15,60.5-101.5,120.7c-7.3,5.1-9.1,15.2-4,22.5
				c3.1,4.5,8.2,6.9,13.3,6.9c3.2,0,6.4-0.9,9.2-2.9c97.8-68,114-137.3,114.6-140.2C522.2,553.5,516.7,544.9,507.9,543z"/>
      </g>
      <g class="scale fill" transform="translate(21, 19) scale(0.14, 0.14)">
         <path d="M166.7,311.9c1.8,0.6,3.6,0.9,5.3,0.9c6.4,0,12.5-4,14.8-10.4c9.2-25.7,21.9-46.2,35.9-62.7
				c4.2,10.3,14.3,17.5,26.1,17.5c15.6,0,28.3-12.7,28.3-28.3c0-10.6-5.9-19.8-14.5-24.7c11.1-7.4,22-13.1,32-17.4
				c5.9-2.6,9.5-8.4,9.5-14.4c0-2.1-0.4-4.2-1.3-6.2l-2.5,1.1l2.5-1.1c-2.6-5.9-8.4-9.5-14.4-9.5c-2.1,0-4.2,0.4-6.2,1.3
				c-20.7,9-44.9,22.9-67.4,44.3c-22.5,21.5-43.4,50.4-57.5,89.4c-0.6,1.8-0.9,3.6-0.9,5.3C156.3,303.5,160.3,309.5,166.7,311.9z"/>
         <path d="M213.6,356c15-21.4,35.5-36.7,56.7-52.6c14.8-11.1,30-22.4,43.5-36.2c13.5-13.8,25.2-30,33-50.8
				c0.7-1.8,1-3.7,1-5.5c0-6.4-3.9-12.4-10.2-14.7c-1.8-0.7-3.7-1-5.5-1c-6.4,0-12.4,3.9-14.7,10.2c-6.1,16.3-15.6,29.3-27,40.8
				c-11.4,11.5-24.9,21.6-38.8,32c-21.8,16.3-45.4,33.9-63.6,59.6c-18.2,25.7-30.8,59.6-30.8,108l0,0.1c0,21.4,5.2,37.9,10.6,49.2
				c5.3,11.3,10.8,17.4,11.4,18c3.1,3.4,7.3,5.1,11.6,5.1c3.8,0,7.6-1.4,10.7-4.2c3.4-3.1,5.1-7.3,5.1-11.6c0-3.8-1.4-7.6-4.1-10.6
				l0,0c-0.1-0.1-3.6-4.2-6.9-11.8c-3.4-7.7-6.7-19.1-6.7-34.1v-0.1C188.7,404.9,198.6,377.4,213.6,356z"/>
         <path d="M475.5,445.9c0,8.6,6.9,15.6,15.5,15.7h0l0.2,0l0,0h0c8.6,0,15.6-6.9,15.7-15.5c0-1.6,0-3.1,0-4.7
				c0-53.6-12.8-89.2-31.5-114.9c-18.6-25.7-42.9-41.5-65.3-56c-15.9-10.3-30.7-20-42.6-32.3c-3.1-3.2-7.2-4.8-11.3-4.8
				c-3.9,0-7.9,1.5-10.9,4.4c-3.2,3.1-4.8,7.2-4.8,11.3c0,3.9,1.5,7.9,4.4,10.9c14.5,15,31.6,26.1,48,36.8
				c21.5,14,42.1,27.5,57.3,48.6c15.2,21.1,25.2,50.1,25.2,95.9c0,1.4,0,2.9,0,4.3L475.5,445.9z"/>
         <path d="M508.5,291.7c-24.3-67.4-69.5-104.2-103.2-123c-36.5-20.4-67.2-24.9-68.7-25.1c-0.7-0.1-1.5-0.2-2.2-0.2
				c-7.7,0-14.4,5.7-15.5,13.5l2.7,0.4L319,157c-0.1,0.7-0.2,1.5-0.2,2.2c0,7.7,5.7,14.4,13.5,15.6l0,0c0,0,27.1,4,58.5,21.9
				c4.2,2.4,8.2,4.9,12.2,7.6c-8.6,4.8-14.5,14-14.5,24.6c0,15.6,12.7,28.3,28.3,28.3c11.8,0,21.9-7.2,26.1-17.5
				c15.2,17.9,27.3,38.8,35.9,62.7c2.3,6.4,8.3,10.4,14.8,10.4c1.8,0,3.6-0.3,5.3-0.9c6.4-2.3,10.4-8.3,10.4-14.8
				C509.5,295.3,509.2,293.5,508.5,291.7z"/>
         <path d="M285.9,585.9c-25-17.3-45.5-36.4-61.1-56.6c-3.1-4-7.8-6.1-12.4-6.1c-3.4,0-6.8,1.1-9.6,3.3
				c-4,3.1-6.1,7.8-6.1,12.4c0,3.4,1.1,6.8,3.3,9.6c17.6,22.8,40.5,44,68.1,63.2c2.7,1.9,5.9,2.8,9,2.8c5,0,9.9-2.4,12.9-6.7
				c1.9-2.7,2.8-5.9,2.8-9C292.7,593.8,290.3,588.9,285.9,585.9z"/>
         <path d="M396.2,611.7c84.2-58.5,98.3-118.2,99-121.2l-2.7-0.6l2.7,0.6c0.2-1.1,0.4-2.3,0.4-3.4
				c0-7.2-5-13.7-12.4-15.3l0,0c-1.1-0.2-2.3-0.4-3.4-0.4c-7.2,0-13.7,5-15.4,12.3l0,0c-0.2,0.7-12.1,50.6-86.2,102.2
				c-4.4,3.1-6.8,8-6.7,12.9c0,3.1,0.9,6.2,2.8,9c3.1,4.4,8,6.8,12.9,6.7C390.3,614.5,393.4,613.6,396.2,611.7z"/>
         <path d="M397.7,495.8v-36.3c21.3-5.3,40.1-20.4,48.8-41.9c0.8-1.9,1.2-3.9,1.2-5.9c0-6.2-3.7-12.1-9.8-14.6
				c-1.9-0.8-3.9-1.2-5.9-1.2c-6.2,0-12.1,3.7-14.6,9.8c-5.7,14.1-20.2,23.7-34.8,24.3l-0.4,0l-0.1,0H382c-0.4,0-0.9,0-1.3,0.1
				c-3.5,0-7.1-0.5-10.4-1.6c-3.6-1.2-7.5-3.7-10.9-7.2c-3.4-3.5-6.4-8-8.5-12.9c-1.3-3-2.1-6-2.6-9c12.6-2.8,23.5-10.1,31.4-19.2
				c8.4-9.8,13.6-21.6,13.6-32.7c0-6.5-1.8-12.3-5.1-17.2c-4.9-7.3-12.9-12.6-22.6-16c-9.7-3.4-21.3-5.1-33.6-5.1
				c-16.5,0-31.5,2.9-42.7,9.2c-5.6,3.1-10.2,7.1-13.5,12c-3.3,4.9-5.1,10.7-5.1,17.2c0,11.1,5.2,23,13.6,32.7
				c7.9,9.1,18.8,16.4,31.4,19.2c-0.5,3-1.3,6-2.6,9c-2.1,4.9-5.1,9.4-8.5,12.9c-3.4,3.5-7.3,6.1-10.9,7.2
				c-3.4,1.1-6.9,1.6-10.4,1.6c-0.4,0-0.9-0.1-1.3-0.1h-0.1l-0.5,0c-14.6-0.7-29.2-10.2-34.8-24.3c-2.5-6.1-8.4-9.8-14.6-9.8
				c-2,0-4,0.4-5.9,1.2c-6.1,2.5-9.8,8.4-9.8,14.6c0,2,0.4,4,1.2,5.9c8.7,21.4,27.5,36.5,48.8,41.9v36.3c0,36.2,29.4,65.7,65.7,65.7
				C368.3,561.4,397.7,532,397.7,495.8z M297.8,460c1.9-0.4,3.8-0.9,5.7-1.5c10.9-3.5,20.8-10.9,28.5-20.7
				c7.7,9.8,17.6,17.1,28.5,20.7c1.9,0.6,3.8,1.1,5.7,1.5v35.8c0,9.4-3.8,18-10,24.2c-6.2,6.2-14.7,10-24.2,10
				c-9.4,0-18-3.8-24.2-10c-6.2-6.2-10-14.7-10-24.2V460z"/>
         <path d="M31.7,322.8C55.6,235.2,102,177,136.7,143.5c37.6-36.2,70.1-52,70.8-52.4c8-3.8,11.5-13.4,7.7-21.5
				c-3.8-8.1-13.4-11.5-21.5-7.7c-1.5,0.7-36.8,17.6-78.3,57.3C77.3,155.6,26.5,219,0.6,314.3c-2.3,8.6,2.7,17.5,11.3,19.8
				c1.4,0.4,2.8,0.6,4.3,0.6C23.3,334.7,29.8,330,31.7,322.8z"/>
         <path d="M111.1,265.4c4.9-7.4,2.8-17.4-4.6-22.3c-7.4-4.9-17.5-2.8-22.4,4.6c-2.6,4-63.9,98.9-55.5,243.5
				c0.5,8.6,7.6,15.2,16.1,15.2c0.3,0,0.6,0,0.9,0c8.9-0.5,15.7-8.2,15.2-17.1C53.1,356,110.4,266.5,111.1,265.4z"/>
         <path d="M133.9,390c3.1-8.3-1.1-17.7-9.4-20.8c-8.3-3.1-17.7,1.1-20.8,9.4c-2.3,6-54.9,148.9,3.2,245.5
				c2.8,4.7,7.6,7.4,12.7,7.8c3.2,0.2,6.5-0.5,9.5-2.3c7.6-4.6,10.1-14.5,5.5-22.2C84.5,524.4,133.4,391.4,133.9,390z"/>
         <path d="M18.8,174.1c2.7,1.7,5.7,2.5,8.7,2.5c5.3,0,10.5-2.6,13.6-7.5C78,111.5,126.6,69.6,181.7,47.9
				c49.7-19.5,101-20.8,144.5-3.7l0.5,0.2c0.3,0.1,0.5,0.2,0.8,0.3c0.3,0.1,0.5,0.1,0.8,0.2c0.3,0.1,0.5,0.1,0.8,0.2
				c0.3,0.1,0.5,0.1,0.8,0.1c0.3,0,0.5,0.1,0.8,0.1c0.3,0,0.5,0,0.8,0.1c0.3,0,0.5,0,0.8,0c0.3,0,0.5,0,0.8,0c0.3,0,0.5,0,0.8-0.1
				c0.3,0,0.5-0.1,0.8-0.1c0.3,0,0.5-0.1,0.8-0.1c0.3-0.1,0.5-0.1,0.8-0.2c0.3-0.1,0.5-0.1,0.8-0.2c0.3-0.1,0.5-0.2,0.8-0.3l0.5-0.2
				c43.5-17.1,94.8-15.8,144.5,3.7c55.1,21.7,103.7,63.6,140.6,121.3c3.1,4.8,8.3,7.5,13.6,7.5c3,0,6-0.8,8.7-2.5
				c7.5-4.8,9.7-14.8,4.9-22.3C609.7,88.4,555.8,42,494.3,17.9C439.2-3.8,381.8-5.8,332.1,12C282.3-5.8,225-3.8,169.9,17.9
				C108.4,42,54.5,88.4,13.9,151.8C9.1,159.3,11.3,169.3,18.8,174.1z"/>
         <path d="M307.2,105.7c8.7-2,14.2-10.6,12.2-19.3c-2-8.7-10.6-14.2-19.3-12.2C185.5,100,128.8,190.2,126.5,194
				c-4.7,7.6-2.3,17.5,5.3,22.2c2.6,1.6,5.6,2.4,8.5,2.4c5.4,0,10.7-2.7,13.8-7.6C154.5,210.2,206.3,128.4,307.2,105.7z"/>
         <path d="M663.6,314.3c-26-95.4-76.7-158.7-114.8-195.1C507.4,79.6,472,62.7,470.5,62c-8.1-3.8-17.7-0.4-21.5,7.7
				c-3.8,8-0.4,17.7,7.6,21.5c0.3,0.2,33,16,70.8,52.4c34.7,33.4,81.1,91.7,104.9,179.3c2,7.2,8.5,11.9,15.6,11.9
				c1.4,0,2.8-0.2,4.3-0.6C660.8,331.8,665.9,322.9,663.6,314.3z"/>
         <path d="M557.7,243c-7.4,4.9-9.5,14.9-4.7,22.3c0.6,0.9,58,90.4,50.3,223.9c-0.5,8.9,6.3,16.5,15.2,17.1
				c0.3,0,0.6,0,0.9,0c8.5,0,15.6-6.6,16.1-15.2c8.4-144.6-52.9-239.5-55.5-243.5C575.1,240.2,565.1,238.1,557.7,243z"/>
         <path d="M535.7,369.7c-8.2,3.4-12.2,12.8-8.8,21.1c0.5,1.3,53.8,132.6,6.6,217.4c-4.3,7.8-1.5,17.6,6.2,22
				c3,1.7,6.4,2.3,9.6,2c5-0.5,9.7-3.4,12.4-8.2c54.9-98.5-2.5-239.5-4.9-245.4C553.4,370.2,543.9,366.3,535.7,369.7z"/>
         <path d="M523.9,218.6c2.9,0,5.8-0.8,8.5-2.4c7.6-4.7,10-14.6,5.3-22.2c-2.4-3.8-59-94-173.7-119.8
				c-8.7-2-17.3,3.5-19.3,12.2c-2,8.7,3.5,17.3,12.2,19.3c100.7,22.6,152.5,104,153.3,105.2C513.2,215.9,518.5,218.6,523.9,218.6z" />
         <path d="M276.9,675.9C190.8,616,175.7,556.4,175.4,555.2c-2-8.7-10.5-14.1-19.2-12.2c-8.7,1.9-14.2,10.5-12.3,19.2
				c0.6,2.9,16.8,72.2,114.6,140.2c2.8,2,6,2.9,9.2,2.9c5.1,0,10.1-2.4,13.3-6.9C286.1,691.1,284.3,681,276.9,675.9z"/>
         <path d="M507.9,543c-8.7-1.9-17.3,3.5-19.2,12.3c-0.1,0.6-15,60.5-101.5,120.7c-7.3,5.1-9.1,15.2-4,22.5
				c3.1,4.5,8.2,6.9,13.3,6.9c3.2,0,6.4-0.9,9.2-2.9c97.8-68,114-137.3,114.6-140.2C522.2,553.5,516.7,544.9,507.9,543z"/>
      </g>
   </g>
</svg>
